<svg width="16" height="16" viewBox="0 0 16 16" fill="none" xmlns="http://www.w3.org/2000/svg">
<path d="M9.5 11.813C9.17165 11.8138 8.84636 11.7497 8.54282 11.6245C8.23928 11.4992 7.96346 11.3153 7.73118 11.0832C7.4989 10.8511 7.31474 10.5754 7.18927 10.272C7.06379 9.96855 6.99948 9.64332 7 9.31496C7.00008 8.90387 7.10153 8.49914 7.29537 8.13662C7.48921 7.77409 7.76946 7.46496 8.1113 7.23661C8.45314 7.00825 8.84601 6.86772 9.25513 6.82745C9.66424 6.78719 10.077 6.84843 10.4568 7.00576C10.8366 7.16309 11.1717 7.41165 11.4325 7.72942C11.6933 8.0472 11.8717 8.42439 11.9519 8.82758C12.0322 9.23077 12.0117 9.64752 11.8924 10.0409C11.7731 10.4343 11.5587 10.7922 11.268 11.083C11.0358 11.315 10.7601 11.4989 10.4567 11.6241C10.1534 11.7494 9.82823 11.8136 9.5 11.813ZM9.5 7.81596C9.116 7.81596 8.731 7.96196 8.439 8.25396C8.156 8.53796 8 8.91396 8 9.31496C8 9.71596 8.156 10.092 8.439 10.376C8.72284 10.6452 9.10061 10.7931 9.49183 10.7879C9.88305 10.7828 10.2568 10.6251 10.5335 10.3484C10.8101 10.0718 10.9678 9.69801 10.973 9.30679C10.9781 8.91557 10.8303 8.5378 10.561 8.25396C10.4217 8.11474 10.2562 8.00439 10.0742 7.92923C9.89208 7.85407 9.69697 7.81558 9.5 7.81596Z" fill="black"/>
<path d="M9.5 11.813C9.17165 11.8138 8.84636 11.7497 8.54282 11.6245C8.23928 11.4992 7.96346 11.3153 7.73118 11.0832C7.4989 10.8511 7.31474 10.5754 7.18927 10.272C7.06379 9.96855 6.99948 9.64332 7 9.31496C7.00008 8.90387 7.10153 8.49914 7.29537 8.13662C7.48921 7.77409 7.76946 7.46496 8.1113 7.23661C8.45314 7.00825 8.84601 6.86772 9.25513 6.82745C9.66424 6.78719 10.077 6.84843 10.4568 7.00576C10.8366 7.16309 11.1717 7.41165 11.4325 7.72942C11.6933 8.0472 11.8717 8.42439 11.9519 8.82758C12.0322 9.23077 12.0117 9.64752 11.8924 10.0409C11.7731 10.4343 11.5587 10.7922 11.268 11.083C11.0358 11.315 10.7601 11.4989 10.4567 11.6241C10.1534 11.7494 9.82823 11.8136 9.5 11.813ZM9.5 7.81596C9.116 7.81596 8.731 7.96196 8.439 8.25396C8.156 8.53796 8 8.91396 8 9.31496C8 9.71596 8.156 10.092 8.439 10.376C8.72284 10.6452 9.10061 10.7931 9.49183 10.7879C9.88305 10.7828 10.2568 10.6251 10.5335 10.3484C10.8101 10.0718 10.9678 9.69801 10.973 9.30679C10.9781 8.91557 10.8303 8.5378 10.561 8.25396C10.4217 8.11474 10.2562 8.00439 10.0742 7.92923C9.89208 7.85407 9.69697 7.81558 9.5 7.81596Z" fill="black"/>
<path d="M9.50001 15.25C9.36741 15.25 9.24023 15.1973 9.14646 15.1035C9.05269 15.0098 9.00001 14.8826 9.00001 14.75V11.315C9.00001 11.1824 9.05269 11.0552 9.14646 10.9614C9.24023 10.8677 9.36741 10.815 9.50001 10.815C9.63262 10.815 9.7598 10.8677 9.85357 10.9614C9.94734 11.0552 10 11.1824 10 11.315V14.75C10 14.8826 9.94734 15.0098 9.85357 15.1035C9.7598 15.1973 9.63262 15.25 9.50001 15.25ZM5.50001 12.75C5.42227 12.7497 5.34564 12.7316 5.27601 12.697L1.82901 10.973C1.57918 10.8495 1.36903 10.6583 1.22247 10.4212C1.07592 10.1841 0.998842 9.9107 1.00001 9.63199V2.86799C1.00001 2.34399 1.26601 1.86699 1.71101 1.59199C2.15701 1.31899 2.70201 1.29199 3.17101 1.52699L5.72401 2.80299C5.80696 2.84456 5.87671 2.90838 5.92545 2.98732C5.97419 3.06627 6.00001 3.15721 6.00001 3.24999V12.25C6.00001 12.3826 5.94733 12.5098 5.85357 12.6035C5.7598 12.6973 5.63262 12.75 5.50001 12.75ZM2.50101 2.36699C2.4077 2.3676 2.31636 2.39389 2.23701 2.44299C2.16405 2.48721 2.10384 2.54963 2.06229 2.62414C2.02074 2.69865 1.99928 2.78268 2.00001 2.86799V9.63199C2.00001 9.82299 2.10501 9.99399 2.27601 10.079L5.00001 11.441V3.55899L2.72401 2.42099C2.65495 2.38574 2.57855 2.36724 2.50101 2.36699Z" fill="black"/>
<path d="M5.5 12.7499C5.4343 12.75 5.36923 12.7372 5.3085 12.7121C5.24778 12.687 5.19261 12.6502 5.14615 12.6037C5.0997 12.5573 5.06287 12.5021 5.03779 12.4414C5.01271 12.3807 4.99987 12.3156 5 12.2499V3.24988C5 3.04488 5.124 2.86188 5.314 2.78588L10.314 0.785884C10.3899 0.755481 10.472 0.744138 10.5533 0.752847C10.6345 0.761557 10.7124 0.790053 10.7801 0.835842C10.8478 0.881631 10.9033 0.943316 10.9416 1.0155C10.9799 1.08768 11 1.16816 11 1.24988V7.59188C11.0001 7.6798 10.977 7.76618 10.9331 7.84233C10.8891 7.91848 10.8259 7.9817 10.7497 8.02561C10.6736 8.06952 10.5872 8.09258 10.4993 8.09245C10.4114 8.09232 10.325 8.06902 10.249 8.02488C9.96408 7.85856 9.63223 7.79094 9.30494 7.83253C8.97766 7.87412 8.67326 8.02258 8.439 8.25488C8.156 8.53788 8 8.91388 8 9.31488C8 9.71588 8.156 10.0919 8.439 10.3759C8.52 10.4579 8.623 10.5319 8.76 10.6109C8.84183 10.6574 8.90886 10.7262 8.95336 10.8091C8.99786 10.8921 9.01804 10.9859 9.01156 11.0799C9.00508 11.1738 8.97222 11.264 8.91675 11.3401C8.86127 11.4161 8.78545 11.475 8.698 11.5099L5.685 12.7149C5.62604 12.7379 5.56331 12.7498 5.5 12.7499ZM6 3.58788V11.5109L7.558 10.8879C7.19526 10.4441 6.99801 9.88805 7 9.31488C6.99965 8.94433 7.08195 8.57836 7.2409 8.24363C7.39984 7.9089 7.63144 7.61383 7.91882 7.3799C8.2062 7.14597 8.54213 6.97908 8.90215 6.89137C9.26218 6.80366 9.63723 6.79735 10 6.87288V1.98788L6 3.58788Z" fill="black"/>
<path d="M13.501 12.133C13.272 12.133 13.043 12.08 12.829 11.973L10.849 10.983C10.7832 10.9497 10.7255 10.9023 10.6801 10.8442C10.6346 10.7861 10.6026 10.7186 10.5863 10.6467C10.57 10.5748 10.5697 10.5001 10.5856 10.4281C10.6014 10.3561 10.633 10.2884 10.678 10.23C10.9017 9.94271 11.0131 9.58386 10.9916 9.22043C10.9701 8.857 10.817 8.51382 10.561 8.25497C10.4676 8.16485 10.3627 8.08751 10.249 8.02497C10.1733 7.98081 10.1105 7.9176 10.0668 7.84164C10.0231 7.76568 10.0001 7.6796 10 7.59197V1.24997C10.0001 1.16484 10.0219 1.08115 10.0634 1.00682C10.1049 0.932482 10.1647 0.869971 10.2371 0.825205C10.3095 0.78044 10.3921 0.754902 10.4771 0.751011C10.5622 0.74712 10.6468 0.765005 10.723 0.802972L14.17 2.52697C14.683 2.78197 15 3.29597 15 3.86797V10.632C15.001 10.8878 14.9361 11.1396 14.8116 11.3631C14.6871 11.5866 14.5071 11.7742 14.289 11.908C14.046 12.058 13.774 12.133 13.501 12.133ZM11.775 10.329L13.276 11.079C13.3519 11.1179 13.4367 11.1364 13.5219 11.1325C13.6072 11.1287 13.6899 11.1026 13.762 11.057C13.8353 11.013 13.8958 10.9507 13.9376 10.8761C13.9793 10.8016 14.0008 10.7174 14 10.632V3.86797C14.0006 3.77507 13.975 3.68388 13.9262 3.60484C13.8774 3.52579 13.8073 3.46207 13.724 3.42097L11 2.05897V7.31997C11.099 7.39197 11.187 7.46597 11.268 7.54797C12.009 8.28897 12.189 9.40297 11.775 10.329Z" fill="black"/>
</svg>
