<svg width="64" height="64" viewBox="0 0 16 16" fill="none" xmlns="http://www.w3.org/2000/svg">
<g clip-path="url(#clip0_262_36)">
<path d="M10.4219 10.5229C10.3282 10.6167 10.201 10.6693 10.0683 10.6693C9.93573 10.6693 9.80854 10.6166 9.71476 10.5229C9.62099 10.4291 9.56832 10.3019 9.56832 10.1693C9.56832 10.0367 9.62099 9.90949 9.71476 9.81571C9.7612 9.76928 9.81633 9.73245 9.87699 9.70732C9.93766 9.68219 10.0027 9.66926 10.0684 9.66926C10.134 9.66926 10.199 9.68219 10.2597 9.70732C10.3204 9.73245 10.3755 9.76928 10.4219 9.81571C10.4684 9.86214 10.5052 9.91728 10.5303 9.97795C10.5555 10.0386 10.5684 10.1036 10.5684 10.1693C10.5684 10.235 10.5555 10.3 10.5303 10.3607C10.5052 10.4213 10.4684 10.4765 10.4219 10.5229ZM6.22553 6.17022C6.13176 6.26399 6.00457 6.31668 5.87196 6.31668C5.73934 6.31668 5.61215 6.26399 5.51837 6.17022C5.4246 6.07644 5.37191 5.94925 5.37191 5.81663C5.37191 5.68402 5.4246 5.55683 5.51837 5.46306C5.5648 5.41663 5.61992 5.37978 5.68059 5.35465C5.74126 5.32952 5.80628 5.3166 5.87195 5.3166C5.93761 5.3166 6.00264 5.32954 6.06331 5.35466C6.12398 5.37979 6.1791 5.41662 6.22553 5.46306C6.27197 5.50949 6.3088 5.56461 6.33393 5.62528C6.35906 5.68595 6.372 5.75097 6.372 5.81664C6.372 5.88231 6.35905 5.94732 6.33392 6.00799C6.30879 6.06866 6.27196 6.12379 6.22553 6.17022Z" stroke="black" stroke-width="0.999605" stroke-linecap="round" stroke-linejoin="round"/>
<path d="M5.4082 10.5552L10.6127 5.35264" stroke="black" stroke-width="0.999605" stroke-linecap="round" stroke-linejoin="round"/>
<path d="M14.4956 7.99293C14.4956 8.84659 14.3275 9.69188 14.0008 10.4806C13.6741 11.2692 13.1953 11.9858 12.5917 12.5895C11.988 13.1931 11.2714 13.6719 10.4828 13.9986C9.69408 14.3253 8.84879 14.4934 7.99513 14.4934C7.14147 14.4934 6.29615 14.3253 5.50747 13.9986C4.71879 13.6719 4.00219 13.1931 3.39856 12.5895C2.79493 11.9859 2.3161 11.2692 1.98942 10.4806C1.66274 9.69188 1.4946 8.84658 1.4946 7.99292C1.4946 6.26887 2.17948 4.61545 3.39857 3.39637C4.61765 2.17729 6.27107 1.4924 7.99511 1.49241C9.71916 1.49241 11.3726 2.17728 12.5917 3.39637C13.8108 4.61545 14.4956 6.26889 14.4956 7.99293Z" stroke="black" stroke-width="0.999605" stroke-linecap="round" stroke-linejoin="round"/>
</g>
<defs>
<clipPath id="clip0_262_36">
<rect width="16" height="16" fill="white"/>
</clipPath>
</defs>
</svg>
